<mxfile host="app.diagrams.net" modified="2023-10-16T19:16:44.110Z" agent="Mozilla/5.0 (Macintosh; Intel Mac OS X 10_15_7) AppleWebKit/537.36 (KHTML, like Gecko) Chrome/118.0.0.0 Safari/537.36" etag="mdJFvZnPx4joVgyV_KCJ" version="22.0.4" type="google">
  <diagram name="Page-1" id="ixYJdPPAjx_OdtFsIfme">
    <mxGraphModel grid="1" page="1" gridSize="10" guides="1" tooltips="1" connect="1" arrows="1" fold="1" pageScale="1" pageWidth="850" pageHeight="1100" math="0" shadow="0">
      <root>
        <mxCell id="0" />
        <mxCell id="1" parent="0" />
        <object label="" id="giuChkiweLmfzkQUCLub-2">
          <mxCell style="shape=stencil(3Zxbb5swGIZ/DVJ3scoHDuYyTZZp0jZN6VbtlhG3QSUQAT1sF/3ts4GQcqhrwFBoVcpsks+v/bw49kc7DS/jnXOgGgJOfKBuouGVhtC190i37Myqd1mNTkBWfsjKyM7LcRKFt/TB2yb5K71gRyMvya4Gzp5m1Ytoe+cFIav7EfGf3zw3PWvGBTBsSzP4izT8SQMLXlt846UbBgFT5oVB3HC99lomyPEC1j54zFoG59iyMQRY1wmyDGKiTNvf4+W8Jwcme08TGuX11R5s+CClI8AvrDtqMREwiW0aBrSQDjHppuWKldz8yL7P2GGwg1/50EuhcLSgrMLPrPSdHateWkBleCCxDLn2YRp5zX7+ZMdvpSqQpAZQaNgo14BlBwIVIi4zHLxxhUJ0aSVPrIRLapbs+KpUjaQUvZDBmzTVSjBl/fGU3bMK227VtFkaBEutEOkbVW27sq2SUt+JUg0EtqFgl5TYPZTAHtMln6D4KiDOz4lSHbLjMdzHWl0TlqbES6ePE94yVqukzVQOSkKQUiHyUzmsGRcqVdJCRvlOBmplSM+nUOs3ldfbbtW0rrbpVqusPp+e9bbbLCZg7X6AQgtgtt5Yi7cTePnHcW9vovAu2L7ao2zv44Z+GLGK7IyzBS8G6Zfk0Fx7vt8c5jr9kg0TBokCNY5/2PGNTnY+cpZ6a8S3kAXdI7W/5eJxS6nn5eOW0sjLTuTG3r+c80fZpvkYZkByR7zAX8iXj2FEp4O/XZg3x88VpOjYQqIgCGUniIQ+cvOwYa2kDNDJUlA3KlMGwrCYNBzfuwmyapcGfPJIq++f1e+97dan+RzjOy7dhf6WRnG7jlallnIaYrk6KZZDo8lt5CK76K32lfuJZ2ye9xOZZqmXukGO/X7Wmci72SX1Pv4JkyTcD9JHKGv6g8PzV8IXld+wD+/pM86wtg2Qargc0/cCYUzJoOk0J9EhqTlT7IWN81D2e00zxg1GeMntMk7opPPM0j4hjQDNZst+vpfwgsNd8uEV7Tpuc6sqE9/Xi2QAL9ZiTs+LVy7fNp4ZVxWsNekTseSvy4vXlM7UgPUbiSiwYD2qOTkPfv6+em1OMay3cF9PpOU+2MdO9eHZNeaINNn4rn/+Li909JJqop+ThsWnT68b1jkya7mOU8liw59yxGzP7PjsH2ybHcR7r/IBV9FuG+ewYXYZWLtSI0I0gBPlg45oRf6mjdCKEE7TixF1qXdPhVZkPpy/F8kQXpQOOqIXuZrL1UII1JqGGb9oS6RdIP6c8fJoyJWTOGI3kvm7EcEB3CgfdEQ3PmFux+VXEVEEpmvHpR+6t0I/IvgO/KgP4UfpoCP6kbFbL0whz0L2bGlaQ9CUDjrm7GIISVpzJ4nBACTlg45J0uQ3piXCedI9W5x4CJzSQUfEKQaJZw/SHAKkdNARQRJ+WxIhTXP2NIfImMkHHXOWtTlOW4jTnh/O4tfdlWZArY5Bx3zAR2OalGlWHvU20nzhSe9UcSrKI1pdo779U7Iq1ZP2OWM1BsEqHXXMnBx/VrHAYqbGe2CqJs1aZTrJPCt/1wKJmZJ3wFRRstLqGnXMR4rp+ggKmZ6Ez5mpmoRflekUM34w3cIAMdPGnN/cmKpJ+1WZTjHvBw0xzsbE38xwKsr9WV2jjolTF+JsTvzNDaea3F8V5xSTf9AU42xM/80Np5oMYBXnFFOAT/zXtNmqCIipNqYB1VNNO177M5C0Nvu/EtKK/w==);whiteSpace=wrap;html=1;noLabel=1;" vertex="1" parent="1">
            <mxGeometry x="400" y="360" width="290" height="480" as="geometry" />
          </mxCell>
        </object>
        <mxCell id="giuChkiweLmfzkQUCLub-3" value="" style="pointerEvents=1;verticalLabelPosition=bottom;shadow=0;dashed=0;align=center;html=1;verticalAlign=top;shape=mxgraph.electrical.miscellaneous.batteryStack;rotation=-180;" vertex="1" parent="1">
          <mxGeometry x="495" y="210" width="100" height="60" as="geometry" />
        </mxCell>
        <object label="" id="giuChkiweLmfzkQUCLub-4">
          <mxCell style="shape=stencil(rVTBbsMgDP0apO0yMWh7n9Ktt/0DSp0FjQACtnb7+gFmWmiaTIqKIjn2w+8Z44TwxvfCAmFUeAttIHxPGOvkGY7RxnCPkQ1F94Turrg+OPMOJ3kMZZ/UPTgZENViAAwfnPnQkZHeHV739wnlz4Q+xUB6eNMaraO6NNpXyAiPUkLqUNG+FdokZqPuAAEcQqXAc/Eetuh/jdGXosWb+D4tgTedcVA0rlWFp2+NMi4G0GZ6wjjNq5Kpkzup1PXULq+lVKPDSlWhbC/SbWeb0x7/UfLyO81HNpiwW8iwIo3CBKg3DeYT/i6nvho2X35NoqQekXBasWzWsWxX1tIq42GuJTE+0xWcAhyjGzb0ohc3aegCy/IJL0+Xd08+rF8A/0Y59gM=);whiteSpace=wrap;html=1;noLabel=1;" vertex="1" parent="1">
            <mxGeometry x="615" y="270" width="60" height="40" as="geometry" />
          </mxCell>
        </object>
        <mxCell id="giuChkiweLmfzkQUCLub-5" style="edgeStyle=orthogonalEdgeStyle;rounded=1;sketch=0;jumpStyle=arc;jumpSize=10;orthogonalLoop=1;jettySize=auto;html=1;exitX=0;exitY=0.5;exitDx=0;exitDy=0;entryX=0.5;entryY=0;entryDx=0;entryDy=0;entryPerimeter=0;shadow=0;strokeWidth=1;startArrow=none;startFill=0;endArrow=none;endFill=0;startSize=6;endSize=6;sourcePerimeterSpacing=0;targetPerimeterSpacing=0;" edge="1" parent="1" source="giuChkiweLmfzkQUCLub-3" target="giuChkiweLmfzkQUCLub-4">
          <mxGeometry relative="1" as="geometry" />
        </mxCell>
        <mxCell id="giuChkiweLmfzkQUCLub-8" style="edgeStyle=orthogonalEdgeStyle;rounded=1;sketch=0;jumpStyle=arc;jumpSize=10;orthogonalLoop=1;jettySize=auto;html=1;exitX=0.5;exitY=1;exitDx=0;exitDy=0;exitPerimeter=0;entryX=1;entryY=0.5;entryDx=0;entryDy=0;shadow=0;strokeWidth=1;startArrow=none;startFill=0;endArrow=none;endFill=0;startSize=6;endSize=6;sourcePerimeterSpacing=0;targetPerimeterSpacing=0;" edge="1" parent="1" source="giuChkiweLmfzkQUCLub-6" target="giuChkiweLmfzkQUCLub-3">
          <mxGeometry relative="1" as="geometry" />
        </mxCell>
        <object label="" id="giuChkiweLmfzkQUCLub-6">
          <mxCell style="shape=stencil(rVPBbsMgDP0arlMGXe8TXT+hd5Q4CxoBBGzt9vUzmGqlaXuIhiKs94z9DHaYkHFSHhjvVPTQJyZ2jPNRn2BAi/REzKYjeCS4rTCm4D7gqIdUz2k7QdCJvFbNQPRBSsQu4HbYZYKJN9a9IsyfkL2zFtW1s7HxXPhRSmmb2rSk41FyhgSB2FrbqaKnF8LfhJ8L2lcZgXXtl+pCji7Ae3CfdrhZEF28d6bciWxJz7joympk2uBRG7M21Nm0MlQZP6nc6GJvvMVSKeqfPBrFUMD2QYRXeQoWjvbQ7L7grzlta/j98tskRtvLJCuztKWI7j9qucqyedQQ5O882Xm+ruZ0MZNnB/3DhfsF);whiteSpace=wrap;html=1;noLabel=1;" vertex="1" parent="1">
            <mxGeometry x="415" y="160" width="60" height="40" as="geometry" />
          </mxCell>
        </object>
        <mxCell id="giuChkiweLmfzkQUCLub-7" value="Vcc" style="strokeColor=none;fillColor=none;connectable=0;movable=0;resizable=0;rotatable=0;cloneable=0;deletable=0;allowArrows=0;expand=0;recursiveResize=0;noLabel=0;fontSize=16;align=center;verticalAlign=bottom;fontFamily=sans-serif;spacing=2;spacingTop=0;spacingLeft=0;spacingRight=0;" vertex="1" parent="giuChkiweLmfzkQUCLub-6">
          <mxGeometry width="60" height="20" as="geometry" />
        </mxCell>
        <mxCell id="giuChkiweLmfzkQUCLub-10" value="4 x AAA alkaline battery pack (~6V)" style="text;html=1;strokeColor=none;fillColor=none;align=center;verticalAlign=middle;whiteSpace=wrap;rounded=0;" vertex="1" parent="1">
          <mxGeometry x="470" y="180" width="235" height="20" as="geometry" />
        </mxCell>
        <object label="" id="giuChkiweLmfzkQUCLub-12">
          <mxCell style="shape=stencil(rVTBbsMgDP0apO0yMWh7n9Ktt/0DSp0FjQACtnb7+gFmWmiaTIqKIjn2w+8Z44TwxvfCAmFUeAttIHxPGOvkGY7RxnCPkQ1F94Turrg+OPMOJ3kMZZ/UPTgZENViAAwfnPnQkZHeHV739wnlz4Q+xUB6eNMaraO6NNpXyAiPUkLqUNG+FdokZqPuAAEcQqXAc/Eetuh/jdGXosWb+D4tgTedcVA0rlWFp2+NMi4G0GZ6wjjNq5Kpkzup1PXULq+lVKPDSlWhbC/SbWeb0x7/UfLyO81HNpiwW8iwIo3CBKg3DeYT/i6nvho2X35NoqQekXBasWzWsWxX1tIq42GuJTE+0xWcAhyjGzb0ohc3aegCy/IJL0+Xd08+rF8A/0Y59gM=);whiteSpace=wrap;html=1;noLabel=1;" vertex="1" parent="1">
            <mxGeometry x="480" y="870" width="60" height="40" as="geometry" />
          </mxCell>
        </object>
        <mxCell id="giuChkiweLmfzkQUCLub-13" style="edgeStyle=orthogonalEdgeStyle;rounded=1;sketch=0;jumpStyle=arc;jumpSize=10;orthogonalLoop=1;jettySize=auto;html=1;exitX=0.3793103448275862;exitY=1;exitDx=0;exitDy=0;exitPerimeter=0;entryX=0.5;entryY=0;entryDx=0;entryDy=0;entryPerimeter=0;shadow=0;strokeWidth=1;startArrow=none;startFill=0;endArrow=none;endFill=0;startSize=6;endSize=6;sourcePerimeterSpacing=0;targetPerimeterSpacing=0;" edge="1" parent="1" source="giuChkiweLmfzkQUCLub-2" target="giuChkiweLmfzkQUCLub-12">
          <mxGeometry relative="1" as="geometry" />
        </mxCell>
        <object label="" id="giuChkiweLmfzkQUCLub-14">
          <mxCell style="shape=stencil(rVPBbsMgDP0arlMGXe8TXT+hd5Q4CxoBBGzt9vUzmGqlaXuIhiKs94z9DHaYkHFSHhjvVPTQJyZ2jPNRn2BAi/REzKYjeCS4rTCm4D7gqIdUz2k7QdCJvFbNQPRBSsQu4HbYZYKJN9a9IsyfkL2zFtW1s7HxXPhRSmmb2rSk41FyhgSB2FrbqaKnF8LfhJ8L2lcZgXXtl+pCji7Ae3CfdrhZEF28d6bciWxJz7joympk2uBRG7M21Nm0MlQZP6nc6GJvvMVSKeqfPBrFUMD2QYRXeQoWjvbQ7L7grzlta/j98tskRtvLJCuztKWI7j9qucqyedQQ5O882Xm+ruZ0MZNnB/3DhfsF);whiteSpace=wrap;html=1;noLabel=1;" vertex="1" parent="1">
            <mxGeometry x="710" y="400" width="60" height="40" as="geometry" />
          </mxCell>
        </object>
        <mxCell id="giuChkiweLmfzkQUCLub-15" value="Vcc" style="strokeColor=none;fillColor=none;connectable=0;movable=0;resizable=0;rotatable=0;cloneable=0;deletable=0;allowArrows=0;expand=0;recursiveResize=0;noLabel=0;fontSize=16;align=center;verticalAlign=bottom;fontFamily=sans-serif;spacing=2;spacingTop=0;spacingLeft=0;spacingRight=0;" vertex="1" parent="giuChkiweLmfzkQUCLub-14">
          <mxGeometry width="60" height="20" as="geometry" />
        </mxCell>
        <mxCell id="giuChkiweLmfzkQUCLub-16" style="edgeStyle=orthogonalEdgeStyle;rounded=1;sketch=0;jumpStyle=arc;jumpSize=10;orthogonalLoop=1;jettySize=auto;html=1;exitX=0.5;exitY=1;exitDx=0;exitDy=0;exitPerimeter=0;entryX=1;entryY=0.25;entryDx=0;entryDy=0;entryPerimeter=0;shadow=0;strokeWidth=1;startArrow=none;startFill=0;endArrow=none;endFill=0;startSize=6;endSize=6;sourcePerimeterSpacing=0;targetPerimeterSpacing=0;" edge="1" parent="1" source="giuChkiweLmfzkQUCLub-14" target="giuChkiweLmfzkQUCLub-2">
          <mxGeometry relative="1" as="geometry" />
        </mxCell>
        <object label="" id="giuChkiweLmfzkQUCLub-17">
          <mxCell style="shape=stencil(zVjLkuIgFP2aVOliUiGvjssep3s3q6lyjwkmVCNYJK32fP1cHnE6GiNq+pEKhVwCnHvP4ULpRfO6whvihQGuNyRvvOiXF4YruicF1GCujAVlgWnvTDsMbLtupHghO1o09kvKKyJpY3o5XhNj/kPkVoDlt2iEhNpLfqJslnqJ6vSiJy94VNbDG81zwTkgooLXPf0n3wIQTDmsG+zNioGfJAbFW2uwmDcAcE0aIq39GOsCWnNbzDuBEkPxoWTK9BR6EJFZBL9TKGrEVE/zPA5W5Iq1hJaKp4rtq+qBUtyFJDgKWuIGpIYWhVJaEBgKOwskgtg+DzMczZc4fymleOXFRVeMDHPBtLhMrWF5YRToxzEmK8pY/zQr/bhOI3gzAhrMNpUKpKmNMhyHSrWbD7S2fL11m+3ujru7+7Dbscxr+tcy/MN1aRVDQ4g2neV/kF8VQ0m+D/3XTfPl9CsEmjpI0QcGUeo4uiF7JR4Iayd7h/8FhdBxpsiQ/2BzBWa05MaaE65yhjZv39nXtCgYsamF4ZxUghVE1td5eYzTni6DOGeZH342zl42shudBBXpo7PjZttuz48ka91+54ykZdWc+rgUTSPWH+IjcpX6BqsLxOBH3QFrsSVDNLst3J2TUT44p+OkOrk5OOSUKYe1sJirS8ok9rPDlSRdTC/sgCjq0ca5DeAijpugTyQpLiGNo2v26mhQRxdje6COK0eUfjs92vN6mFUUp9ccFR+nwKUUO35Jgyh5+IrtcqcGuz7MWqfuEeCtc36i/GrgAbMOoWHcvaVAquzRHiOrnoPR5fC/TXlCYl6S6RDSWeKjnuQ3OlJNz8ldW1vNfwPa8A8=);whiteSpace=wrap;html=1;noLabel=1;" vertex="1" parent="1">
            <mxGeometry x="150" y="320" width="200" height="180" as="geometry" />
          </mxCell>
        </object>
        <object label="" id="giuChkiweLmfzkQUCLub-18">
          <mxCell style="shape=stencil(rVPBbsMgDP0arlMGXe8TXT+hd5Q4CxoBBGzt9vUzmGqlaXuIhiKs94z9DHaYkHFSHhjvVPTQJyZ2jPNRn2BAi/REzKYjeCS4rTCm4D7gqIdUz2k7QdCJvFbNQPRBSsQu4HbYZYKJN9a9IsyfkL2zFtW1s7HxXPhRSmmb2rSk41FyhgSB2FrbqaKnF8LfhJ8L2lcZgXXtl+pCji7Ae3CfdrhZEF28d6bciWxJz7joympk2uBRG7M21Nm0MlQZP6nc6GJvvMVSKeqfPBrFUMD2QYRXeQoWjvbQ7L7grzlta/j98tskRtvLJCuztKWI7j9qucqyedQQ5O882Xm+ruZ0MZNnB/3DhfsF);whiteSpace=wrap;html=1;noLabel=1;" vertex="1" parent="1">
            <mxGeometry x="230" y="260" width="60" height="40" as="geometry" />
          </mxCell>
        </object>
        <mxCell id="giuChkiweLmfzkQUCLub-19" value="Vcc" style="strokeColor=none;fillColor=none;connectable=0;movable=0;resizable=0;rotatable=0;cloneable=0;deletable=0;allowArrows=0;expand=0;recursiveResize=0;noLabel=0;fontSize=16;align=center;verticalAlign=bottom;fontFamily=sans-serif;spacing=2;spacingTop=0;spacingLeft=0;spacingRight=0;" vertex="1" parent="giuChkiweLmfzkQUCLub-18">
          <mxGeometry width="60" height="20" as="geometry" />
        </mxCell>
        <mxCell id="giuChkiweLmfzkQUCLub-20" style="edgeStyle=orthogonalEdgeStyle;rounded=1;sketch=0;jumpStyle=arc;jumpSize=10;orthogonalLoop=1;jettySize=auto;html=1;exitX=0.5;exitY=1;exitDx=0;exitDy=0;exitPerimeter=0;entryX=0.55;entryY=0;entryDx=0;entryDy=0;entryPerimeter=0;shadow=0;strokeWidth=1;startArrow=none;startFill=0;endArrow=none;endFill=0;startSize=6;endSize=6;sourcePerimeterSpacing=0;targetPerimeterSpacing=0;" edge="1" parent="1" source="giuChkiweLmfzkQUCLub-18" target="giuChkiweLmfzkQUCLub-17">
          <mxGeometry relative="1" as="geometry" />
        </mxCell>
        <object label="" id="giuChkiweLmfzkQUCLub-21">
          <mxCell style="shape=stencil(rVTBbsMgDP0apO0yMWh7n9Ktt/0DSp0FjQACtnb7+gFmWmiaTIqKIjn2w+8Z44TwxvfCAmFUeAttIHxPGOvkGY7RxnCPkQ1F94Turrg+OPMOJ3kMZZ/UPTgZENViAAwfnPnQkZHeHV739wnlz4Q+xUB6eNMaraO6NNpXyAiPUkLqUNG+FdokZqPuAAEcQqXAc/Eetuh/jdGXosWb+D4tgTedcVA0rlWFp2+NMi4G0GZ6wjjNq5Kpkzup1PXULq+lVKPDSlWhbC/SbWeb0x7/UfLyO81HNpiwW8iwIo3CBKg3DeYT/i6nvho2X35NoqQekXBasWzWsWxX1tIq42GuJTE+0xWcAhyjGzb0ohc3aegCy/IJL0+Xd08+rF8A/0Y59gM=);whiteSpace=wrap;html=1;noLabel=1;" vertex="1" parent="1">
            <mxGeometry x="230" y="510" width="60" height="40" as="geometry" />
          </mxCell>
        </object>
        <mxCell id="giuChkiweLmfzkQUCLub-22" style="edgeStyle=orthogonalEdgeStyle;rounded=1;sketch=0;jumpStyle=arc;jumpSize=10;orthogonalLoop=1;jettySize=auto;html=1;exitX=0.55;exitY=1;exitDx=0;exitDy=0;exitPerimeter=0;entryX=0.5;entryY=0;entryDx=0;entryDy=0;entryPerimeter=0;shadow=0;strokeWidth=1;startArrow=none;startFill=0;endArrow=none;endFill=0;startSize=6;endSize=6;sourcePerimeterSpacing=0;targetPerimeterSpacing=0;" edge="1" parent="1" source="giuChkiweLmfzkQUCLub-17" target="giuChkiweLmfzkQUCLub-21">
          <mxGeometry relative="1" as="geometry" />
        </mxCell>
        <object label="" id="giuChkiweLmfzkQUCLub-24">
          <mxCell style="shape=stencil(1VjbcpswEP0aHu1BkmXjx9Zx04dM2pn2BxSQjSYgMUJN7H59dQFiA8bypbXLwAitxHJ292i1EKBFmZKCBjAkZUFjFaCHAMIV29BEt1qcOgmIQtd/d304q/qlkuKVvrNEVTMZT6lkyo1yklMn/lYoFpNMy75LsWE5U1t9/4PyUkh9E+DPIUSzAJu5AVoG4ScjbU60iAXnGiATvOwZ78zVuAjjGka4cQDCMWodDuK2Hq4MKjT6nCoqK3nbkCfdW+rLAoVfzsSC53D3nJ6HpbABgqHQl9ppjUeJmWkCpC9WtfUceRH2QT8CX+yPuvd8oR+blzWOw7dyHFpo+TBH0eKFxK9rKX7x5Ki5bl3FIrPLw7XI+QqF9vD024plWb+alT181QiuroCGZEVqHOxaF0TPR6VJTx803At83a2z1aSVrXDVJzIu2e+KBCPfNxsXunhY0cHwD4bXuFDS+4n+aWpuHn2DwIZOL8gmgmDq+bSiG8Md7dbWbgQ/GAUgbqWTKR7DKqGQjK25k8aUm8RixW878pwlSUar/JORmKYiS6gsT7OzjXRntxzEGoHx7NZY6918EOg8ur1Tn35+HQGMw1EIjqAFYPLv/drL9ehMW80aNZXVrp1wsl9wABzVdu8YI9k6VV0bX4RSIv8rNgLfRFIQU24OTtp/IBdv9MP+edguHLzeu68yY3xIpadOu3F4mOO1Cx1h/fJhjwUdyAj1sOAQ1X1ocBZMwkVCh4FO0Ck55GpIL2QdmF6fdl2d98e7IhVK6NKdl6xU7f2hg/8+SKiLnEzXm0fR/p9M7Cyo+vP+qhlQe+veqPj4fCQFAjy7Bf0ujGfzN2bbMuuSeDYfTacqvZPU0i5yosk46inlDlQ5PpXcWZCpLuYbMh2AOsdj0JNWrg/VhqrzXWql7r+gFfwB);whiteSpace=wrap;html=1;noLabel=1;" vertex="1" parent="1">
            <mxGeometry x="80" y="750" width="270" height="180" as="geometry" />
          </mxCell>
        </object>
        <object label="" id="giuChkiweLmfzkQUCLub-25">
          <mxCell style="shape=stencil(rVTBbsMgDP0apO0yMWh7n9Ktt/0DSp0FjQACtnb7+gFmWmiaTIqKIjn2w+8Z44TwxvfCAmFUeAttIHxPGOvkGY7RxnCPkQ1F94Turrg+OPMOJ3kMZZ/UPTgZENViAAwfnPnQkZHeHV739wnlz4Q+xUB6eNMaraO6NNpXyAiPUkLqUNG+FdokZqPuAAEcQqXAc/Eetuh/jdGXosWb+D4tgTedcVA0rlWFp2+NMi4G0GZ6wjjNq5Kpkzup1PXULq+lVKPDSlWhbC/SbWeb0x7/UfLyO81HNpiwW8iwIo3CBKg3DeYT/i6nvho2X35NoqQekXBasWzWsWxX1tIq42GuJTE+0xWcAhyjGzb0ohc3aegCy/IJL0+Xd08+rF8A/0Y59gM=);whiteSpace=wrap;html=1;noLabel=1;" vertex="1" parent="1">
            <mxGeometry x="140" y="1020" width="60" height="40" as="geometry" />
          </mxCell>
        </object>
        <mxCell id="giuChkiweLmfzkQUCLub-26" style="edgeStyle=orthogonalEdgeStyle;rounded=1;sketch=0;jumpStyle=arc;jumpSize=10;orthogonalLoop=1;jettySize=auto;html=1;exitX=0.3333333333333333;exitY=1;exitDx=0;exitDy=0;exitPerimeter=0;entryX=0.5;entryY=0;entryDx=0;entryDy=0;entryPerimeter=0;shadow=0;strokeWidth=1;startArrow=none;startFill=0;endArrow=none;endFill=0;startSize=6;endSize=6;sourcePerimeterSpacing=0;targetPerimeterSpacing=0;" edge="1" parent="1" source="giuChkiweLmfzkQUCLub-24" target="giuChkiweLmfzkQUCLub-25">
          <mxGeometry relative="1" as="geometry" />
        </mxCell>
        <object label="" id="giuChkiweLmfzkQUCLub-27">
          <mxCell style="shape=stencil(rVPBbsMgDP0arlMGXe8TXT+hd5Q4CxoBBGzt9vUzmGqlaXuIhiKs94z9DHaYkHFSHhjvVPTQJyZ2jPNRn2BAi/REzKYjeCS4rTCm4D7gqIdUz2k7QdCJvFbNQPRBSsQu4HbYZYKJN9a9IsyfkL2zFtW1s7HxXPhRSmmb2rSk41FyhgSB2FrbqaKnF8LfhJ8L2lcZgXXtl+pCji7Ae3CfdrhZEF28d6bciWxJz7joympk2uBRG7M21Nm0MlQZP6nc6GJvvMVSKeqfPBrFUMD2QYRXeQoWjvbQ7L7grzlta/j98tskRtvLJCuztKWI7j9qucqyedQQ5O882Xm+ruZ0MZNnB/3DhfsF);whiteSpace=wrap;html=1;noLabel=1;" vertex="1" parent="1">
            <mxGeometry x="140" y="590" width="60" height="40" as="geometry" />
          </mxCell>
        </object>
        <mxCell id="giuChkiweLmfzkQUCLub-28" value="Vcc" style="strokeColor=none;fillColor=none;connectable=0;movable=0;resizable=0;rotatable=0;cloneable=0;deletable=0;allowArrows=0;expand=0;recursiveResize=0;noLabel=0;fontSize=16;align=center;verticalAlign=bottom;fontFamily=sans-serif;spacing=2;spacingTop=0;spacingLeft=0;spacingRight=0;" vertex="1" parent="giuChkiweLmfzkQUCLub-27">
          <mxGeometry width="60" height="20" as="geometry" />
        </mxCell>
        <object label="" id="giuChkiweLmfzkQUCLub-29">
          <mxCell style="shape=stencil(rVVbboMwEDyNfyuDA6GfLW0P0BtYsAlWHRvZzqM9ff2qhJNCU+QIyewsnp11lgGRVg90BFRiqkfoDCIvqCx37AK9XS08BKTCITyHsMAx1kbJDziz3sQHmRhAMROygh4gwO+gmTZSWRBVzxjjAlUOR+QV4SeH2ou0nRTCqmBS6CQzyduKlAmTsDMR6o229AEMqABHjZck+ozRQ+3jt//UkUdzR6FisRBp7f1tn6TdSQV7JY+i/1VSOOlOcn+IYfUFUEmw/y30s2Ocr90qhVm5lfJxoG60/Do5m/lKmn25YfRL2LD0N43Ujd1NIn3oIE8wNwVkXn5KwpmYkBRNDha3Z8JSrmMhaUeblSxNDi2bOoeWapNDS13m0LLFObRsmxxamrSjtbOL8b003qpm3rGZ17VZIDNwcXZqjWxqIUXinY9XJxVbppztRYAU2w/RhU8T2MgxWjOnHQyS96D0354TXPXKnW+c+CcRvpUe+wY=);whiteSpace=wrap;html=1;noLabel=1;rotation=90;" vertex="1" parent="1">
            <mxGeometry x="125" y="665" width="100" height="50" as="geometry" />
          </mxCell>
        </object>
        <mxCell id="giuChkiweLmfzkQUCLub-30" value="220Ω" style="strokeColor=none;fillColor=none;connectable=0;movable=0;resizable=0;rotatable=0;cloneable=0;deletable=0;allowArrows=0;expand=0;recursiveResize=0;noLabel=0;fontSize=16;align=center;verticalAlign=bottom;fontFamily=sans-serif;spacing=2;spacingTop=0;spacingLeft=0;spacingRight=0;rotation=90;" vertex="1" parent="giuChkiweLmfzkQUCLub-29">
          <mxGeometry x="15" y="15" width="100" height="20" as="geometry" />
        </mxCell>
        <mxCell id="giuChkiweLmfzkQUCLub-31" style="edgeStyle=orthogonalEdgeStyle;rounded=1;sketch=0;jumpStyle=arc;jumpSize=10;orthogonalLoop=1;jettySize=auto;html=1;exitX=0.3333333333333333;exitY=0;exitDx=0;exitDy=0;exitPerimeter=0;entryX=1;entryY=0.6;entryDx=0;entryDy=0;entryPerimeter=0;shadow=0;strokeWidth=1;startArrow=none;startFill=0;endArrow=none;endFill=0;startSize=6;endSize=6;sourcePerimeterSpacing=0;targetPerimeterSpacing=0;" edge="1" parent="1" source="giuChkiweLmfzkQUCLub-24" target="giuChkiweLmfzkQUCLub-29">
          <mxGeometry relative="1" as="geometry" />
        </mxCell>
        <mxCell id="giuChkiweLmfzkQUCLub-32" style="edgeStyle=orthogonalEdgeStyle;rounded=1;sketch=0;jumpStyle=arc;jumpSize=10;orthogonalLoop=1;jettySize=auto;html=1;exitX=0;exitY=0.6;exitDx=0;exitDy=0;exitPerimeter=0;entryX=0.5;entryY=1;entryDx=0;entryDy=0;entryPerimeter=0;shadow=0;strokeWidth=1;startArrow=none;startFill=0;endArrow=none;endFill=0;startSize=6;endSize=6;sourcePerimeterSpacing=0;targetPerimeterSpacing=0;" edge="1" parent="1" source="giuChkiweLmfzkQUCLub-29" target="giuChkiweLmfzkQUCLub-27">
          <mxGeometry relative="1" as="geometry" />
        </mxCell>
        <mxCell id="giuChkiweLmfzkQUCLub-33" style="edgeStyle=orthogonalEdgeStyle;rounded=1;sketch=0;jumpStyle=arc;jumpSize=10;orthogonalLoop=1;jettySize=auto;html=1;exitX=0.5925925925925926;exitY=0;exitDx=0;exitDy=0;exitPerimeter=0;entryX=0.5;entryY=1;entryDx=0;entryDy=0;entryPerimeter=0;shadow=0;strokeWidth=1;startArrow=none;startFill=0;endArrow=none;endFill=0;startSize=6;endSize=6;sourcePerimeterSpacing=0;targetPerimeterSpacing=0;" edge="1" parent="1" source="giuChkiweLmfzkQUCLub-24" target="giuChkiweLmfzkQUCLub-27">
          <mxGeometry relative="1" as="geometry">
            <Array as="points">
              <mxPoint x="240" y="630" />
            </Array>
          </mxGeometry>
        </mxCell>
        <object label="" id="giuChkiweLmfzkQUCLub-34">
          <mxCell style="shape=stencil(nVLBTsMwDP2aXFFIRHeeChz4i6h1qSFzoiTTNr6eNO7ErIEm1ovr9/L8nNjK9nl2EZTRLkcYirLPypgJjzDWWOGZEaM5Pcg0lxQ+4YBjWc8hzZCwMEtuBwy/7WkoGGjB7YvSW7VU0Mr2QyCCxmXBXPDVxCEVUfDjoqDRsXruoEBicm3uuGYPT5yfZP66+tm+/l+3YfspJHhPYU/jr53x3YfgQ6oAx2agjNXtEzZSPKH390oDlTulzsfZLbNusckebzhl/Fq2owUWdDeuxe/y1wnwHmOGn83qxGJ1YnQbMbjNP43bYK+GeCZ47xv2DQ==);whiteSpace=wrap;html=1;noLabel=1;" vertex="1" parent="1">
            <mxGeometry x="160" y="620" width="20" height="20" as="geometry" />
          </mxCell>
        </object>
        <object label="" id="giuChkiweLmfzkQUCLub-40">
          <mxCell style="shape=stencil(rVVbboMwEDyNfyuDA6GfLW0P0BtYsAlWHRvZzqM9ff2qhJNCU+QIyewsnp11lgGRVg90BFRiqkfoDCIvqCx37AK9XS08BKTCITyHsMAx1kbJDziz3sQHmRhAMROygh4gwO+gmTZSWRBVzxjjAlUOR+QV4SeH2ou0nRTCqmBS6CQzyduKlAmTsDMR6o229AEMqABHjZck+ozRQ+3jt//UkUdzR6FisRBp7f1tn6TdSQV7JY+i/1VSOOlOcn+IYfUFUEmw/y30s2Ocr90qhVm5lfJxoG60/Do5m/lKmn25YfRL2LD0N43Ujd1NIn3oIE8wNwVkXn5KwpmYkBRNDha3Z8JSrmMhaUeblSxNDi2bOoeWapNDS13m0LLFObRsmxxamrSjtbOL8b003qpm3rGZ17VZIDNwcXZqjWxqIUXinY9XJxVbppztRYAU2w/RhU8T2MgxWjOnHQyS96D0354TXPXKnW+c+CcRvpUe+wY=);whiteSpace=wrap;html=1;noLabel=1;rotation=90;" vertex="1" parent="1">
            <mxGeometry x="330" y="900" width="100" height="50" as="geometry" />
          </mxCell>
        </object>
        <mxCell id="giuChkiweLmfzkQUCLub-41" value="5.6kΩ" style="strokeColor=none;fillColor=none;connectable=0;movable=0;resizable=0;rotatable=0;cloneable=0;deletable=0;allowArrows=0;expand=0;recursiveResize=0;noLabel=0;fontSize=16;align=center;verticalAlign=bottom;fontFamily=sans-serif;spacing=2;spacingTop=0;spacingLeft=0;spacingRight=0;rotation=90;" vertex="1" parent="giuChkiweLmfzkQUCLub-40">
          <mxGeometry x="15" y="15" width="100" height="20" as="geometry" />
        </mxCell>
        <mxCell id="giuChkiweLmfzkQUCLub-42" style="edgeStyle=orthogonalEdgeStyle;rounded=1;sketch=0;jumpStyle=arc;jumpSize=10;orthogonalLoop=1;jettySize=auto;html=1;exitX=1;exitY=0.5;exitDx=0;exitDy=0;exitPerimeter=0;entryX=0;entryY=0.6;entryDx=0;entryDy=0;entryPerimeter=0;shadow=0;strokeWidth=1;startArrow=none;startFill=0;endArrow=none;endFill=0;startSize=6;endSize=6;sourcePerimeterSpacing=0;targetPerimeterSpacing=0;" edge="1" parent="1" source="giuChkiweLmfzkQUCLub-24" target="giuChkiweLmfzkQUCLub-40">
          <mxGeometry relative="1" as="geometry" />
        </mxCell>
        <mxCell id="giuChkiweLmfzkQUCLub-43" style="edgeStyle=orthogonalEdgeStyle;rounded=1;sketch=0;jumpStyle=arc;jumpSize=10;orthogonalLoop=1;jettySize=auto;html=1;exitX=1;exitY=0.6;exitDx=0;exitDy=0;exitPerimeter=0;entryX=0.5;entryY=0;entryDx=0;entryDy=0;entryPerimeter=0;shadow=0;strokeWidth=1;startArrow=none;startFill=0;endArrow=none;endFill=0;startSize=6;endSize=6;sourcePerimeterSpacing=0;targetPerimeterSpacing=0;" edge="1" parent="1" source="giuChkiweLmfzkQUCLub-40" target="giuChkiweLmfzkQUCLub-25">
          <mxGeometry relative="1" as="geometry" />
        </mxCell>
        <mxCell id="giuChkiweLmfzkQUCLub-44" style="edgeStyle=orthogonalEdgeStyle;rounded=1;sketch=0;jumpStyle=arc;jumpSize=10;orthogonalLoop=1;jettySize=auto;html=1;exitX=0;exitY=0.5;exitDx=0;exitDy=0;exitPerimeter=0;entryX=0;entryY=0.4375;entryDx=0;entryDy=0;entryPerimeter=0;shadow=0;strokeWidth=1;startArrow=none;startFill=0;endArrow=none;endFill=0;startSize=6;endSize=6;sourcePerimeterSpacing=0;targetPerimeterSpacing=0;" edge="1" parent="1" source="giuChkiweLmfzkQUCLub-17" target="giuChkiweLmfzkQUCLub-2">
          <mxGeometry relative="1" as="geometry" />
        </mxCell>
        <mxCell id="giuChkiweLmfzkQUCLub-45" style="edgeStyle=orthogonalEdgeStyle;rounded=1;sketch=0;jumpStyle=arc;jumpSize=10;orthogonalLoop=1;jettySize=auto;html=1;exitX=0;exitY=0.5;exitDx=0;exitDy=0;exitPerimeter=0;entryX=1;entryY=0.5;entryDx=0;entryDy=0;entryPerimeter=0;shadow=0;strokeWidth=1;startArrow=none;startFill=0;endArrow=none;endFill=0;startSize=6;endSize=6;sourcePerimeterSpacing=0;targetPerimeterSpacing=0;" edge="1" parent="1" source="giuChkiweLmfzkQUCLub-2" target="giuChkiweLmfzkQUCLub-24">
          <mxGeometry relative="1" as="geometry" />
        </mxCell>
        <object label="" id="giuChkiweLmfzkQUCLub-46">
          <mxCell style="shape=stencil(nVLBTsMwDP2aXFFIRHeeChz4i6h1qSFzoiTTNr6eNO7ErIEm1ovr9/L8nNjK9nl2EZTRLkcYirLPypgJjzDWWOGZEaM5Pcg0lxQ+4YBjWc8hzZCwMEtuBwy/7WkoGGjB7YvSW7VU0Mr2QyCCxmXBXPDVxCEVUfDjoqDRsXruoEBicm3uuGYPT5yfZP66+tm+/l+3YfspJHhPYU/jr53x3YfgQ6oAx2agjNXtEzZSPKH390oDlTulzsfZLbNusckebzhl/Fq2owUWdDeuxe/y1wnwHmOGn83qxGJ1YnQbMbjNP43bYK+GeCZ47xv2DQ==);whiteSpace=wrap;html=1;noLabel=1;" vertex="1" parent="1">
            <mxGeometry x="360" y="829" width="20" height="20" as="geometry" />
          </mxCell>
        </object>
        <mxCell id="5MKSCfPnJaC67jO2G3mG-1" value="ISAM 102 Workshop: Electrical Schematic" style="text;strokeColor=none;fillColor=none;html=1;fontSize=24;fontStyle=1;verticalAlign=middle;align=center;" vertex="1" parent="1">
          <mxGeometry x="370" y="30" width="100" height="40" as="geometry" />
        </mxCell>
        <mxCell id="5MKSCfPnJaC67jO2G3mG-2" value="Shown here using Arduino Pro Micro; most workshop kits are actually using MH-Tiny board (based on ATTiny 88), with same pin mapping. See&amp;nbsp;&lt;a href=&quot;https://github.com/robzach/ISAM_102_workshop&quot;&gt;https://github.com/robzach/ISAM_102_workshop&lt;/a&gt; for much more information and context." style="text;html=1;strokeColor=none;fillColor=none;align=center;verticalAlign=middle;whiteSpace=wrap;rounded=0;" vertex="1" parent="1">
          <mxGeometry x="30" y="90" width="790" height="20" as="geometry" />
        </mxCell>
      </root>
    </mxGraphModel>
  </diagram>
</mxfile>
